<svg aria-hidden="true" style="width:0;height:0;position:absolute;overflow:hidden" xmlns="http://www.w3.org/2000/svg"><defs><symbol id="icon-dark-mode" viewBox="0 0 32 32"><path d="M16 4C9.373 4 4 9.373 4 16s5.373 12 12 12 12-5.373 12-12c0-.613-.053-1.227-.133-1.813-1.319 1.833-3.447 3.013-5.851 3.013h-.017H22a7.204 7.204 0 0 1-4.208-13.052l.021-.015A13.5 13.5 0 0 0 16 4z"/></symbol><symbol id="icon-light-mode" viewBox="0 0 32 32"><path d="M16 9.333c-3.68 0-6.667 2.987-6.667 6.667S12.32 22.667 16 22.667 22.667 19.68 22.667 16 19.68 9.333 16 9.333zm-13.333 8h2.667c.733 0 1.333-.6 1.333-1.333s-.6-1.333-1.333-1.333H2.667c-.733 0-1.333.6-1.333 1.333s.6 1.333 1.333 1.333zm24 0h2.667c.733 0 1.333-.6 1.333-1.333s-.6-1.333-1.333-1.333h-2.667c-.733 0-1.333.6-1.333 1.333s.6 1.333 1.333 1.333zm-12-14.666v2.667c0 .733.6 1.333 1.333 1.333s1.333-.6 1.333-1.333V2.667c0-.733-.6-1.333-1.333-1.333s-1.333.6-1.333 1.333zm0 24v2.667c0 .733.6 1.333 1.333 1.333s1.333-.6 1.333-1.333v-2.667c0-.733-.6-1.333-1.333-1.333s-1.333.6-1.333 1.333zm-6.68-20.56a1.329 1.329 0 1 0-1.88 1.88L7.52 9.4c.52.52 1.373.52 1.88 0s.52-1.373 0-1.88L7.987 6.107zM24.48 22.6c-.24-.242-.573-.391-.94-.391s-.7.149-.94.391c-.242.24-.391.573-.391.94s.149.7.391.94l1.413 1.413a1.329 1.329 0 1 0 1.88-1.88L24.48 22.6zm1.413-14.613c.241-.24.39-.573.39-.94s-.149-.7-.39-.94c-.24-.241-.573-.39-.94-.39s-.7.149-.94.39L22.6 7.52c-.241.24-.39.573-.39.94s.149.7.39.94c.52.507 1.373.52 1.88 0l1.413-1.413zM9.4 24.48a1.329 1.329 0 0 0-1.458-2.165l.009-.003c-.168.07-.311.168-.431.288l-1.413 1.413c-.241.24-.39.573-.39.94s.149.7.39.94c.52.507 1.373.52 1.88 0L9.4 24.48z"/></symbol><symbol id="icon-close" viewBox="0 0 32 32"><path d="M8.3 6.415a1.333 1.333 0 0 0-1.884 1.886l7.7 7.7-7.701 7.7A1.333 1.333 0 1 0 8.3 25.586l7.702-7.7 7.7 7.7a1.333 1.333 0 0 0 1.884-1.886l-7.7-7.7 7.7-7.7A1.333 1.333 0 0 0 23.7 6.416l-7.7 7.7-7.7-7.7z"/></symbol><symbol id="icon-fb" viewBox="0 0 32 32"><path d="M0 16.089C0 24.044 5.777 30.658 13.333 32V20.444h-4V16h4v-3.556c0-4 2.577-6.221 6.223-6.221 1.155 0 2.4.177 3.555.355v4.089h-2.044c-1.956 0-2.4.977-2.4 2.223v3.111h4.267l-.711 4.444h-3.556v11.556C26.223 30.66 32 24.046 32 16.09 32 7.241 24.8.001 16 .001S0 7.241 0 16.09z"/></symbol><symbol id="icon-github" viewBox="0 0 32 32"><path d="M16 0C7.16 0 0 7.16 0 16c0 7.08 4.58 13.06 10.94 15.18.8.14 1.1-.34 1.1-.76 0-.38-.02-1.64-.02-2.98-4.02.74-5.06-.98-5.38-1.88-.18-.46-.96-1.88-1.64-2.26-.56-.3-1.36-1.04-.02-1.06 1.26-.02 2.16 1.16 2.46 1.64 1.44 2.42 3.74 1.74 4.66 1.32.14-1.04.56-1.74 1.02-2.14-3.56-.4-7.28-1.78-7.28-7.9 0-1.74.62-3.18 1.64-4.3-.16-.4-.72-2.04.16-4.24 0 0 1.34-.42 4.4 1.64 1.28-.36 2.64-.54 4-.54s2.72.18 4 .54c3.06-2.08 4.4-1.64 4.4-1.64.88 2.2.32 3.84.16 4.24 1.02 1.12 1.64 2.54 1.64 4.3 0 6.14-3.74 7.5-7.3 7.9.58.5 1.08 1.46 1.08 2.96 0 2.14-.02 3.86-.02 4.4 0 .42.3.92 1.1.76C27.49 28.976 31.998 23.015 32 16c0-8.84-7.16-16-16-16z"/></symbol><symbol id="icon-laptop" viewBox="0 0 32 32"><path d="M5 6v13.563l-2.281 2.314A2.443 2.443 0 0 0 2 23.594 2.42 2.42 0 0 0 4.406 26h23.188A2.42 2.42 0 0 0 30 23.594a2.45 2.45 0 0 0-.719-1.719L27 19.562V6H5zm2 2h18v11H7V8zm9 1-1.5 9H16l1.5-9H16zm-3.914 2-1.719 2.068L10 13.5l.367.432L12.086 16l1.086-.863L11.81 13.5l1.36-1.637L12.086 11zm7.828 0-1.086.863L20.19 13.5l-1.36 1.637 1.085.863 1.719-2.068L22 13.5l-.367-.432L19.914 11zM6.437 21h19.125l2.313 2.281a.467.467 0 0 1 .1.472.387.387 0 0 1-.381.247H4.406a.393.393 0 0 1-.294-.112.393.393 0 0 1-.112-.294c0-.11.047-.234.125-.313L6.437 21z"/></symbol><symbol id="icon-linkedin" viewBox="0 0 32 32"><path d="M1.333 3.784v24.431a2.452 2.452 0 0 0 2.451 2.452H28.216a2.451 2.451 0 0 0 2.451-2.451V3.781a2.448 2.448 0 0 0-2.448-2.448H3.785a2.451 2.451 0 0 0-2.451 2.451zm11.611 8.733h3.972v1.995c.573-1.147 2.04-2.179 4.244-2.179 4.225 0 5.227 2.284 5.227 6.475v7.763h-4.276v-6.808c0-2.387-.573-3.733-2.029-3.733-2.02 0-2.86 1.452-2.86 3.733v6.808h-4.277V12.518zM5.611 26.388V12.333h4.277v14.055H5.611zM10.5 7.749l.001.068A2.751 2.751 0 0 1 5 7.872v-.055a2.751 2.751 0 0 1 5.501-.072v.004z"/></symbol><symbol id="icon-location" viewBox="0 0 32 32"><path d="M16 28a40.024 40.024 0 0 1-4.617-4.648l-.049-.06c-2.133-2.548-4.667-6.343-4.667-9.959v-.005a9.333 9.333 0 0 1 15.936-6.596 9.242 9.242 0 0 1 2.731 6.571v.032-.002c0 3.616-2.533 7.411-4.667 9.959a40.113 40.113 0 0 1-4.613 4.663L16 28zm0-18.667a4 4 0 0 0 0 8 4 4 0 0 0 0-8z"/></symbol><symbol id="icon-mail" viewBox="0 0 32 32"><path d="M29.333 11.477v10.856a4.334 4.334 0 0 1-4.076 4.326l-.012.001-.245.007H7a4.334 4.334 0 0 1-4.326-4.076l-.001-.012-.007-.245V11.478l12.869 6.741c.135.072.294.114.464.114s.329-.042.469-.117l-.005.003 12.869-6.741zM7 5.333h18.001c2.24 0 4.083 1.7 4.31 3.88l.002.019-13.312 6.973L2.689 9.232a4.338 4.338 0 0 1 4.052-3.891l.012-.001.248-.007z"/></symbol><symbol id="icon-mountain" viewBox="0 0 32 32"><path d="m17.012 3.021-.912 1.66-6.522 11.856-1.916-1.916-.66 1.098L.235 27h31.284l-4.18-9.752-2.068 2.068-8.259-16.295zm-.073 4.282 3.04 5.996-.774.664-2.28-1.953-2.279 1.953-.93-.799 3.223-5.861zm-.013 7.34 2.28 1.953 1.702-1.46 3.2 6.315.622 1.233 1.932-1.932L28.482 25H3.766c1.43-2.385 2.862-4.77 4.293-7.154l1.988 1.988.642-1.166c.681-1.238 1.363-2.475 2.043-3.713l1.914 1.64 2.28-1.952z"/></symbol><symbol id="icon-phone" viewBox="0 0 32 32"><path d="M25.329 26.667c-11.375.016-20.008-8.72-19.996-19.996 0-.737.597-1.337 1.333-1.337h3.52c.66 0 1.221.485 1.319 1.139a16.534 16.534 0 0 0 1.396 4.63l-.043-.101.137.296a.943.943 0 0 1-.304 1.161l-.003.002c-1.091.779-1.507 2.345-.657 3.567a15.916 15.916 0 0 0 3.891 3.909l.05.034c1.223.848 2.789.432 3.567-.657a.942.942 0 0 1 1.17-.306l-.006-.002.295.136a16.503 16.503 0 0 0 4.529 1.355 1.336 1.336 0 0 1 1.139 1.32v3.519c0 .736-.597 1.333-1.333 1.333h-.004z"/></symbol><symbol id="icon-print" viewBox="0 0 32 32"><path d="M29.333 10.667H2.666v12h5.333V28h16v-5.333h5.333v-12zm-8 14.666H10.666v-6.667h10.667v6.667zm4-9.333C24.6 16 24 15.4 24 14.667s.6-1.333 1.333-1.333 1.333.6 1.333 1.333S26.066 16 25.333 16zM24 4H8v5.333h16V4z"/></symbol><symbol id="icon-download" viewBox="0 0 32 32"><path d="M16 21.167q-.2 0-.367-.067t-.333-.233l-5.033-5.033q-.3-.3-.283-.717t.317-.717.717-.3.717.3l3.267 3.3V6.333q0-.433.283-.717t.717-.283.717.283.283.717V17.7l3.3-3.3q.3-.3.717-.3t.717.3.3.717-.3.717l-5.033 5.033q-.167.167-.333.233t-.367.067zm-8.667 5.5q-.8 0-1.4-.6t-.6-1.4V20.9q0-.433.283-.717t.717-.283.717.283.283.717v3.767h17.333V20.9q0-.433.283-.717t.717-.283.717.283.283.717v3.767q0 .8-.6 1.4t-1.4.6z"/></symbol></defs></svg>