<svg aria-hidden="true" style="position: absolute; width: 0; height: 0; overflow: hidden;" version="1.1" xmlns="http://www.w3.org/2000/svg" xmlns:xlink="http://www.w3.org/1999/xlink">
<defs>
<symbol id="icon-dark-mode" viewBox="0 0 32 32">
<path d="M16 4c-6.627 0-12 5.373-12 12s5.373 12 12 12c6.627 0 12-5.373 12-12v0c0-0.613-0.053-1.227-0.133-1.813-1.319 1.833-3.447 3.013-5.851 3.013-0.006 0-0.011 0-0.017-0h0.001c-3.978-0.002-7.201-3.227-7.201-7.205 0-2.407 1.18-4.538 2.993-5.847l0.021-0.015c-0.587-0.080-1.2-0.133-1.813-0.133z"></path>
</symbol>
<symbol id="icon-light-mode" viewBox="0 0 32 32">
<path d="M16 9.333c-3.68 0-6.667 2.987-6.667 6.667s2.987 6.667 6.667 6.667 6.667-2.987 6.667-6.667-2.987-6.667-6.667-6.667zM2.667 17.333h2.667c0.733 0 1.333-0.6 1.333-1.333s-0.6-1.333-1.333-1.333h-2.667c-0.733 0-1.333 0.6-1.333 1.333s0.6 1.333 1.333 1.333zM26.667 17.333h2.667c0.733 0 1.333-0.6 1.333-1.333s-0.6-1.333-1.333-1.333h-2.667c-0.733 0-1.333 0.6-1.333 1.333s0.6 1.333 1.333 1.333zM14.667 2.667v2.667c0 0.733 0.6 1.333 1.333 1.333s1.333-0.6 1.333-1.333v-2.667c0-0.733-0.6-1.333-1.333-1.333s-1.333 0.6-1.333 1.333zM14.667 26.667v2.667c0 0.733 0.6 1.333 1.333 1.333s1.333-0.6 1.333-1.333v-2.667c0-0.733-0.6-1.333-1.333-1.333s-1.333 0.6-1.333 1.333zM7.987 6.107c-0.241-0.241-0.573-0.389-0.94-0.389-0.734 0-1.329 0.595-1.329 1.329 0 0.367 0.149 0.699 0.389 0.94l1.413 1.413c0.52 0.52 1.373 0.52 1.88 0s0.52-1.373 0-1.88l-1.413-1.413zM24.48 22.6c-0.24-0.242-0.573-0.391-0.94-0.391s-0.7 0.149-0.94 0.391l-0 0c-0.242 0.24-0.391 0.573-0.391 0.94s0.149 0.7 0.391 0.94l1.413 1.413c0.241 0.241 0.573 0.389 0.94 0.389 0.734 0 1.329-0.595 1.329-1.329 0-0.367-0.149-0.699-0.389-0.94l-1.413-1.413zM25.893 7.987c0.241-0.24 0.39-0.573 0.39-0.94s-0.149-0.7-0.39-0.94l-0-0c-0.24-0.241-0.573-0.39-0.94-0.39s-0.7 0.149-0.94 0.39l-1.413 1.413c-0.241 0.24-0.39 0.573-0.39 0.94s0.149 0.7 0.39 0.94l0 0c0.52 0.507 1.373 0.52 1.88 0l1.413-1.413zM9.4 24.48c0.243-0.241 0.394-0.575 0.394-0.944 0-0.733-0.595-1.328-1.328-1.328-0.186 0-0.363 0.038-0.524 0.107l0.009-0.003c-0.168 0.070-0.311 0.168-0.431 0.288v0l-1.413 1.413c-0.241 0.24-0.39 0.573-0.39 0.94s0.149 0.7 0.39 0.94l0 0c0.52 0.507 1.373 0.52 1.88 0l1.413-1.413z"></path>
</symbol>
<symbol id="icon-close" viewBox="0 0 32 32">
<path d="M8.3 6.415c-0.24-0.232-0.566-0.374-0.926-0.374-0.736 0-1.333 0.597-1.333 1.333 0 0.36 0.143 0.687 0.375 0.927l7.7 7.7-7.701 7.7c-0.251 0.243-0.407 0.583-0.407 0.959 0 0.736 0.597 1.333 1.333 1.333 0.376 0 0.716-0.156 0.959-0.407l7.702-7.7 7.7 7.7c0.24 0.232 0.566 0.374 0.926 0.374 0.736 0 1.333-0.597 1.333-1.333 0-0.36-0.143-0.687-0.375-0.927l-7.7-7.7 7.7-7.7c0.232-0.24 0.374-0.566 0.374-0.926 0-0.736-0.597-1.333-1.333-1.333-0.36 0-0.687 0.143-0.927 0.375l-7.7 7.7-7.7-7.7z"></path>
</symbol>
<symbol id="icon-fb" viewBox="0 0 32 32">
<path d="M0 16.089c0 7.955 5.777 14.569 13.333 15.911v-11.556h-4v-4.444h4v-3.556c0-4 2.577-6.221 6.223-6.221 1.155 0 2.4 0.177 3.555 0.355v4.089h-2.044c-1.956 0-2.4 0.977-2.4 2.223v3.111h4.267l-0.711 4.444h-3.556v11.556c7.556-1.341 13.333-7.955 13.333-15.911 0-8.849-7.2-16.089-16-16.089s-16 7.24-16 16.089z"></path>
</symbol>
<symbol id="icon-github" viewBox="0 0 32 32">
<path d="M16 0c-8.84 0-16 7.16-16 16 0 7.080 4.58 13.060 10.94 15.18 0.8 0.14 1.1-0.34 1.1-0.76 0-0.38-0.020-1.64-0.020-2.98-4.020 0.74-5.060-0.98-5.38-1.88-0.18-0.46-0.96-1.88-1.64-2.26-0.56-0.3-1.36-1.040-0.020-1.060 1.26-0.020 2.16 1.16 2.46 1.64 1.44 2.42 3.74 1.74 4.66 1.32 0.14-1.040 0.56-1.74 1.020-2.14-3.56-0.4-7.28-1.78-7.28-7.9 0-1.74 0.62-3.18 1.64-4.3-0.16-0.4-0.72-2.040 0.16-4.24 0 0 1.34-0.42 4.4 1.64 1.28-0.36 2.64-0.54 4-0.54s2.72 0.18 4 0.54c3.060-2.080 4.4-1.64 4.4-1.64 0.88 2.2 0.32 3.84 0.16 4.24 1.020 1.12 1.64 2.54 1.64 4.3 0 6.14-3.74 7.5-7.3 7.9 0.58 0.5 1.080 1.46 1.080 2.96 0 2.14-0.020 3.86-0.020 4.4 0 0.42 0.3 0.92 1.1 0.76 6.39-2.204 10.898-8.165 10.9-15.18v-0c0-8.84-7.16-16-16-16z"></path>
</symbol>
<symbol id="icon-laptop" viewBox="0 0 32 32">
<path d="M5 6v13.563l-2.281 2.314c-0.457 0.455-0.715 1.072-0.719 1.717 0.003 0.637 0.258 1.247 0.708 1.698s1.061 0.705 1.698 0.708h23.188c0.637-0.003 1.247-0.258 1.698-0.708s0.705-1.061 0.708-1.698c-0.004-0.645-0.262-1.263-0.719-1.719l-2.281-2.313v-13.562h-22zM7 8h18v11h-18v-11zM16 9l-1.5 9h1.5l1.5-9h-1.5zM12.086 11l-1.719 2.068-0.367 0.432 0.367 0.432 1.719 2.068 1.086-0.863-1.362-1.637 1.36-1.637-1.084-0.863zM19.914 11l-1.086 0.863 1.362 1.637-1.36 1.637 1.085 0.863 1.719-2.068 0.366-0.432-0.367-0.432-1.719-2.068zM6.437 21h19.125l2.313 2.281c0.079 0.085 0.124 0.197 0.125 0.313 0.003 0.054-0.006 0.108-0.025 0.159s-0.049 0.096-0.087 0.135-0.084 0.068-0.135 0.087c-0.050 0.019-0.105 0.028-0.159 0.025h-23.188c-0.054 0.003-0.108-0.006-0.159-0.025s-0.096-0.049-0.135-0.087c-0.038-0.038-0.068-0.084-0.087-0.135s-0.028-0.105-0.025-0.159c0-0.11 0.047-0.234 0.125-0.313l2.312-2.281z"></path>
</symbol>
<symbol id="icon-linkedin" viewBox="0 0 32 32">
<path d="M1.333 3.784v24.431c0 0 0 0 0 0 0 1.354 1.097 2.451 2.451 2.452h24.431c0 0 0.001 0 0.001 0 1.353 0 2.451-1.097 2.451-2.451 0-0.001 0-0.002 0-0.003v-24.429c0-0.001 0-0.002 0-0.003 0-1.352-1.096-2.448-2.448-2.448-0.002 0-0.004 0-0.005 0h-24.429c-1.353 0-2.451 1.097-2.451 2.451zM12.944 12.517h3.972v1.995c0.573-1.147 2.040-2.179 4.244-2.179 4.225 0 5.227 2.284 5.227 6.475v7.763h-4.276v-6.808c0-2.387-0.573-3.733-2.029-3.733-2.020 0-2.86 1.452-2.86 3.733v6.808h-4.277v-14.053zM5.611 26.388v-14.055h4.277v14.055h-4.277zM10.5 7.749c0.001 0.020 0.001 0.044 0.001 0.068 0 1.519-1.232 2.751-2.751 2.751-1.501 0-2.721-1.202-2.75-2.696l-0-0.003c-0-0.015-0-0.034-0-0.052 0-1.519 1.232-2.751 2.751-2.751 1.495 0 2.712 1.193 2.75 2.679l0 0.004z"></path>
</symbol>
<symbol id="icon-location" viewBox="0 0 32 32">
<path d="M16 28c-1.697-1.453-3.224-2.993-4.617-4.648l-0.049-0.060c-2.133-2.548-4.667-6.343-4.667-9.959 0-0.001 0-0.003 0-0.005 0-5.155 4.179-9.333 9.333-9.333 2.579 0 4.913 1.046 6.603 2.737l0 0c1.687 1.679 2.731 4.003 2.731 6.571 0 0.011-0 0.021-0 0.032v-0.002c0 3.616-2.533 7.411-4.667 9.959-1.443 1.715-2.97 3.255-4.613 4.663l-0.054 0.045zM16 9.333c-2.209 0-4 1.791-4 4s1.791 4 4 4v0c2.209 0 4-1.791 4-4s-1.791-4-4-4v0z"></path>
</symbol>
<symbol id="icon-mail" viewBox="0 0 32 32">
<path d="M29.333 11.477v10.856c0 0 0 0 0 0 0 2.307-1.803 4.193-4.076 4.326l-0.012 0.001-0.245 0.007h-18c-0 0-0 0-0 0-2.307 0-4.193-1.803-4.326-4.076l-0.001-0.012-0.007-0.245v-10.856l12.869 6.741c0.135 0.072 0.294 0.114 0.464 0.114s0.329-0.042 0.469-0.117l-0.005 0.003 12.869-6.741zM7 5.333h18c0 0 0 0 0.001 0 2.24 0 4.083 1.7 4.31 3.88l0.002 0.019-13.312 6.973-13.312-6.973c0.219-2.114 1.93-3.766 4.052-3.891l0.012-0.001 0.248-0.007z"></path>
</symbol>
<symbol id="icon-mountain" viewBox="0 0 32 32">
<path d="M17.012 3.021l-0.912 1.66-6.522 11.856-1.916-1.916-0.66 1.098-6.767 11.281h31.284l-4.18-9.752-2.068 2.068-8.259-16.295zM16.939 7.303l3.040 5.996-0.774 0.664-2.28-1.953-2.279 1.953-0.93-0.799 3.223-5.861zM16.926 14.643l2.28 1.953 1.702-1.46 3.2 6.315 0.622 1.233 1.932-1.932 1.82 4.248h-24.716c1.43-2.385 2.862-4.77 4.293-7.154l1.988 1.988 0.642-1.166c0.681-1.238 1.363-2.475 2.043-3.713l1.914 1.64 2.28-1.952z"></path>
</symbol>
<symbol id="icon-phone" viewBox="0 0 32 32">
<path d="M25.329 26.667c-11.375 0.016-20.008-8.72-19.996-19.996 0-0.737 0.597-1.337 1.333-1.337h3.52c0.66 0 1.221 0.485 1.319 1.139 0.256 1.692 0.729 3.216 1.396 4.63l-0.043-0.101 0.137 0.296c0.055 0.116 0.087 0.252 0.087 0.396 0 0.315-0.154 0.593-0.391 0.765l-0.003 0.002c-1.091 0.779-1.507 2.345-0.657 3.567 1.086 1.549 2.393 2.856 3.891 3.909l0.050 0.034c1.223 0.848 2.789 0.432 3.567-0.657 0.173-0.241 0.452-0.396 0.767-0.396 0.144 0 0.281 0.032 0.403 0.090l-0.006-0.002 0.295 0.136c1.437 0.667 2.963 1.123 4.529 1.355 0.653 0.097 1.139 0.659 1.139 1.32v3.519c0 0.736-0.597 1.333-1.333 1.333-0 0-0.001 0-0.001 0h-0.003z"></path>
</symbol>
<symbol id="icon-print" viewBox="0 0 32 32">
<path d="M29.333 10.667h-26.667v12h5.333v5.333h16v-5.333h5.333v-12zM21.333 25.333h-10.667v-6.667h10.667v6.667zM25.333 16c-0.733 0-1.333-0.6-1.333-1.333s0.6-1.333 1.333-1.333 1.333 0.6 1.333 1.333-0.6 1.333-1.333 1.333zM24 4h-16v5.333h16v-5.333z"></path>
</symbol>
<symbol id="icon-download" viewBox="0 0 32 32">
<path d="M16 21.167q-0.2 0-0.367-0.067t-0.333-0.233l-5.033-5.033q-0.3-0.3-0.283-0.717t0.317-0.717 0.717-0.3 0.717 0.3l3.267 3.3v-11.367q0-0.433 0.283-0.717t0.717-0.283 0.717 0.283 0.283 0.717v11.367l3.3-3.3q0.3-0.3 0.717-0.3t0.717 0.3 0.3 0.717-0.3 0.717l-5.033 5.033q-0.167 0.167-0.333 0.233t-0.367 0.067zM7.333 26.667q-0.8 0-1.4-0.6t-0.6-1.4v-3.767q0-0.433 0.283-0.717t0.717-0.283 0.717 0.283 0.283 0.717v3.767h17.333v-3.767q0-0.433 0.283-0.717t0.717-0.283 0.717 0.283 0.283 0.717v3.767q0 0.8-0.6 1.4t-1.4 0.6z"></path>
</symbol>
</defs>
</svg>
